<svg xmlns="http://www.w3.org/2000/svg">
	<symbol id = "video__play"  viewBox="0 0 130 130">
		<g>
		<path d="M58.521 0.13572C58.0219 0.256183 55.5699 0.686409 53.0729 1.09112C6.17415 8.69809 -16.0083 65.9044 13.0263 104.367C22.0681 116.344 42.8323 129.906 43.8607 124.506C43.9895 123.832 42.7534 122.978 39.6854 121.624C27.0991 116.065 15.7097 105.112 9.49548 92.5938C-13.0744 47.1276 25.5402 -4.32319 75.965 4.02852C83.5399 5.28359 84.8555 2.66782 77.4319 1.11129C74.053 0.402757 60.344 -0.303999 58.521 0.136315V0.13572ZM58.8236 13.5427C49.9562 14.8494 38.5455 19.3896 38.5455 21.6114C38.5455 23.3352 39.8261 23.2017 44.5063 20.9901C70.1424 8.8779 101.354 22.1306 110.64 49.0716C126.075 93.8524 75.1194 131.76 36.427 104.279C14.9264 89.009 9.96843 58.679 25.4031 36.8396C29.4989 31.0443 27.3436 28.5941 23.1612 34.2915C-2.60779 69.3966 24.2964 118.982 67.7711 116.507C111.658 114.008 132.641 61.4206 102.441 29.6195C91.3694 17.9613 73.5089 11.378 58.8242 13.5415L58.8236 13.5427ZM111.588 21.4488C110.688 22.349 111.376 23.9601 114.257 27.704C135.62 55.4579 128.626 96.9429 99.2939 116.46C86.0768 125.255 74.472 127.692 52.7708 126.233C50.7271 126.096 50.3491 126.252 50.3491 127.237C50.3491 131.711 76.324 130.498 89.2029 125.422C126.968 110.539 141.858 62.4946 119.094 28.9739C114.774 22.6137 112.602 20.4352 111.588 21.4494L111.588 21.4488ZM47.2645 44.1107C46.191 45.2963 46.099 46.6867 45.9347 64.2031C45.6647 92.9997 42.7985 92.1292 77.569 73.8111C94.5145 64.8831 94.6095 65.1632 70.3056 52.4143C51.3039 42.4467 49.3949 41.7584 47.2645 44.1107ZM68.2637 55.0052C86.726 64.6481 86.8221 64.7081 85.5308 65.7798C84.0829 66.982 51.1615 84 50.285 84C49.5812 84 49.4412 80.8353 49.4412 64.9324C49.4412 51.5574 49.6388 45.8642 50.1022 45.8642C50.4654 45.8642 58.6385 49.9778 68.2643 55.0052H68.2637Z"  />
		
		</g>
		<symbol id = "instagram"   viewBox="0 0 28 28">
		<g>
		<path d="M15.36 0.666992C17.76 0.666992 18.267 0.693992 19.493 0.746992C20.906 0.813992 21.88 1.03999 22.72 1.37399C23.6 1.70699 24.347 2.17399 25.08 2.90699C25.827 3.63999 26.28 4.38699 26.627 5.26699C26.96 6.10699 27.174 7.07999 27.24 8.50699C27.307 9.77399 27.32 10.267 27.32 12.934V15.067C27.32 17.734 27.307 18.227 27.24 19.494C27.217 20.659 26.994 21.764 26.604 22.788L26.626 22.721C26.279 23.601 25.826 24.348 25.093 25.081C24.346 25.828 23.6 26.281 22.72 26.628C21.88 26.961 20.907 27.175 19.493 27.241C18.226 27.308 17.72 27.321 15.053 27.321H12.933C10.266 27.321 9.77296 27.308 8.49296 27.241C7.32796 27.218 6.22296 26.995 5.19896 26.605L5.26596 26.627C4.34296 26.274 3.55596 25.753 2.90696 25.094L2.90596 25.093C2.23996 24.441 1.71396 23.649 1.37396 22.764L1.35896 22.719C0.991964 21.763 0.768964 20.657 0.745964 19.502V19.492C0.692964 18.45 0.662964 17.229 0.662964 16.002C0.662964 15.776 0.663964 15.55 0.665964 15.325V15.359V12.626C0.665964 10.226 0.692964 9.71899 0.745964 8.49299C0.812964 7.07999 1.03896 6.10599 1.35896 5.26599C1.70596 4.38599 2.15896 3.63899 2.90596 2.90599C3.55096 2.23899 4.33996 1.71599 5.22296 1.38699L5.26596 1.37299C6.22096 1.00199 7.32596 0.773992 8.48096 0.746992H8.49296C9.71996 0.693992 10.226 0.666992 12.626 0.666992H15.36ZM15.387 3.06699H12.6C10.293 3.06699 9.79996 3.09399 8.59996 3.14699C7.30696 3.19999 6.59996 3.41399 6.13296 3.59999C5.50596 3.83999 5.06596 4.13299 4.59996 4.59999C4.13396 5.06699 3.83996 5.50699 3.59996 6.13299C3.42696 6.59999 3.19996 7.30599 3.14696 8.61299C3.09396 9.81299 3.06696 10.293 3.06696 12.613V15.386C3.06696 17.706 3.09396 18.186 3.14696 19.386C3.19996 20.679 3.41396 21.386 3.59996 21.853C3.83996 22.48 4.13296 22.92 4.59996 23.386C5.06696 23.852 5.50696 24.146 6.13296 24.386C6.59996 24.573 7.30596 24.786 8.61296 24.839C9.90596 24.906 10.373 24.919 13.253 24.919H14.733C17.626 24.919 18.08 24.906 19.386 24.839C20.679 24.786 21.386 24.572 21.853 24.386C22.48 24.146 22.92 23.853 23.386 23.386C23.852 22.919 24.146 22.479 24.386 21.853C24.573 21.386 24.786 20.68 24.839 19.386C24.906 18.079 24.919 17.626 24.919 14.733V13.266C24.919 10.373 24.906 9.90599 24.839 8.59899C24.786 7.30599 24.572 6.59899 24.386 6.13199C24.16 5.53099 23.819 5.01799 23.387 4.59999L23.386 4.59899C22.966 4.16599 22.454 3.82499 21.881 3.60799L21.853 3.59899C21.121 3.32299 20.275 3.15799 19.391 3.14599H19.386C18.358 3.09399 17.155 3.06399 15.944 3.06399C15.748 3.06399 15.552 3.06499 15.356 3.06599H15.386L15.387 3.06699ZM14 7.14699C17.781 7.14699 20.847 10.212 20.847 13.994C20.847 17.776 17.782 20.841 14 20.841C10.219 20.841 7.15296 17.776 7.15296 13.994C7.15296 10.212 10.218 7.14699 14 7.14699ZM14 9.54699C11.544 9.54699 9.55296 11.538 9.55296 13.994C9.55296 16.45 11.544 18.441 14 18.441C16.456 18.441 18.447 16.45 18.447 13.994C18.447 11.538 16.456 9.54699 14 9.54699ZM21.107 5.27999C21.991 5.27999 22.707 5.99599 22.707 6.87999C22.707 7.76399 21.991 8.47999 21.107 8.47999C20.223 8.47999 19.507 7.76399 19.507 6.87999C19.507 5.99599 20.223 5.27999 21.107 5.27999Z"/>
		
		</g>
	
	</symbol>
	<symbol id = "fc"    viewBox="0 0 17 28">
		<g>
		<path d="M5.04 27.333L5 15.666H0V10.666H5V7.33302C5 2.84002 7.787 0.666016 11.8 0.666016C13.72 0.666016 15.373 0.799016 15.853 0.866016V5.57302H13.066C10.893 5.57302 10.466 6.61302 10.466 8.13302V10.666H16.666L14.999 15.666H10.466V27.333H5.039H5.04Z"/>

		</g>
	
	</symbol>
			<symbol id = "tw" viewBox="0 0 28 22">
			<g>
			<path d="M27.333 2.83998C26.333 3.33298 25.333 3.50698 24.16 3.66698C25.333 2.99998 26.16 1.99998 26.493 0.666984C25.488 1.27498 24.317 1.73798 23.07 1.98898L23 2.00098C21.969 0.986984 20.56 0.354984 19.004 0.333984H19C16.16 0.333984 13.667 2.84098 13.667 5.84098C13.667 6.33398 13.667 6.66798 13.84 7.00098C9.26197 6.82298 5.22097 4.66398 2.52897 1.36198L2.50697 1.33398C2.08197 2.05998 1.83097 2.93198 1.83097 3.86298C1.83097 3.97198 1.83397 4.08098 1.84097 4.18898L1.83997 4.17398C1.87397 6.05198 2.84897 7.69498 4.31297 8.65498L4.33397 8.66798C3.49397 8.66798 2.66697 8.33498 1.82697 8.00098C1.82697 10.668 3.66697 12.841 6.15997 13.334C5.66697 13.507 5.15997 13.507 4.66697 13.507C4.33397 13.507 3.99997 13.507 3.66697 13.334C4.33397 15.507 6.33397 17.174 8.83997 17.174C7.03997 18.629 4.72397 19.509 2.20297 19.509C2.13197 19.509 2.06097 19.508 1.98997 19.507H2.00097H0.667969C3.03297 21.016 5.90397 21.936 8.98397 22H9.00097C19.001 22 24.508 13.667 24.508 6.49298V5.82598C25.655 5.03598 26.601 4.03898 27.311 2.88198L27.335 2.83998H27.333Z" />
			</g>
			</symbol>

			<symbol id = "sp" viewBox="0 0 28 28">
			<g>
			<path d="M14 0.666992C6.65699 0.693992 0.713989 6.65299 0.713989 14C0.713989 19.599 4.16599 24.393 9.05699 26.368L9.14599 26.4C9.01299 25.347 8.91899 23.733 9.18599 22.573L10.746 15.946C10.746 15.946 10.346 15.146 10.346 13.973C10.346 12.12 11.426 10.746 12.773 10.746C13.906 10.746 14.466 11.599 14.466 12.613C14.466 13.76 13.733 15.466 13.346 17.053C13.026 18.386 14.013 19.466 15.333 19.466C17.706 19.466 19.52 16.973 19.52 13.373C19.52 10.173 17.227 7.95999 13.947 7.95999C13.871 7.95599 13.783 7.95399 13.694 7.95399C10.505 7.95399 7.92099 10.539 7.92099 13.727C7.92099 13.729 7.92099 13.731 7.92099 13.733C7.92099 14.88 8.36099 16.106 8.90799 16.773C9.01499 16.906 9.02799 17.026 8.98799 17.16L8.61499 18.667C8.56199 18.907 8.41499 18.974 8.17499 18.854C6.49499 18.067 5.45499 15.654 5.45499 13.681C5.45499 9.48099 8.52199 5.62799 14.282 5.62799C18.895 5.62799 22.509 8.90799 22.509 13.321C22.509 17.921 19.602 21.614 15.576 21.614C14.243 21.614 12.963 20.907 12.536 20.081L11.696 23.241C11.265 24.578 10.704 25.739 10.008 26.804L10.042 26.748C11.212 27.12 12.558 27.335 13.953 27.335C21.317 27.335 27.286 21.365 27.286 14.002C27.286 6.65499 21.344 0.695992 14.004 0.668992H14.001L14 0.666992Z" />
			</g>
			</symbol>
</svg>