<svg width="16" height="16" viewBox="0 0 16 16" fill="none" xmlns="http://www.w3.org/2000/svg">
<path d="M8.14773 15.2273C12.3026 15.2273 15.6619 11.8679 15.6477 7.72727C15.6335 3.58665 12.3026 0.227273 8.14773 0.227273C4.02131 0.227273 0.661932 3.58665 0.647727 7.72727C0.633523 11.8679 4.02131 15.2273 8.14773 15.2273ZM8.14773 13.5795C4.91619 13.5795 2.28125 10.9446 2.29545 7.73438C2.30966 4.50284 4.9304 1.875 8.14773 1.875C11.3793 1.875 13.9858 4.48864 14 7.73438C14.0142 10.9588 11.3935 13.5795 8.14773 13.5795ZM4 7.72727C4 10.0568 5.8892 11.946 8.21875 11.946C10.2358 11.946 11.7841 10.5256 12.054 8.63636H10.3352C10.1364 9.60938 9.3125 10.2983 8.21875 10.2983C6.7983 10.2983 5.64773 9.14773 5.64773 7.72727C5.64773 6.30682 6.7983 5.15625 8.21875 5.15625C9.3125 5.15625 10.2855 5.84517 10.4773 6.81818H12.196C11.9261 4.92898 10.2358 3.50852 8.21875 3.50852C5.8892 3.50852 4 5.39773 4 7.72727Z" fill="white"/>
</svg>
