<svg id="filled_outline" height="512" viewBox="0 0 512 512" width="512" xmlns="http://www.w3.org/2000/svg" data-name="filled outline"><path d="m446.734 237.382-58.354-166.045-52.38-47.337-8 68.556 58.354 166.044a32 32 0 0 0 60.38-21.219z" fill="#e4d9ce"/><path d="m446.734 237.382-58.354-166.045-52.38-47.337-3.215 27.554 39.595 35.783 58.354 166.045a31.886 31.886 0 0 1 -1.032 23.771 32 32 0 0 0 17.032-39.771z" fill="#fbf4ee"/><path d="m88 280v32h16v96h-16v32h367.2a32.8 32.8 0 0 0 32.8-32.8v-94.4a32.8 32.8 0 0 0 -32.8-32.8z" fill="#2e4859"/><path d="m455.2 280h-367.2v16h351.2a32.8 32.8 0 0 1 32.8 32.8v94.4a32.654 32.654 0 0 1 -3.031 13.769 32.8 32.8 0 0 0 19.031-29.769v-94.4a32.8 32.8 0 0 0 -32.8-32.8z" fill="#48687a"/><path d="m104 312h335.927a16.073 16.073 0 0 1 16.073 16.073v63.853a16.073 16.073 0 0 1 -16.073 16.074h-335.927a0 0 0 0 1 0 0v-96a0 0 0 0 1 0 0z" fill="#fbf4ee"/><path d="m104 336h320v16h-320z" fill="#e4d9ce"/><path d="m104 368h320v16h-320z" fill="#e4d9ce"/><path d="m347.409 78.326h64v128h-64z" fill="#6f8b7b" transform="matrix(.943 -.332 .332 .943 -25.728 133.846)"/><path d="m388.38 71.337-24.268 8.528 41.822 120.977 24.885-8.745z" fill="#a7d5c3"/><path d="m387.2 231.539h64a0 0 0 0 1 0 0v16a32 32 0 0 1 -32 32 32 32 0 0 1 -32-32v-16a0 0 0 0 1 0 0z" fill="#b9bec1" transform="matrix(.943 -.332 .332 .943 -61.014 153.441)"/><path d="m446.734 237.382-5.305-15.1-12.151 4.271 4.407 12.538a32 32 0 0 1 -19.58 40.8h-.008a31.853 31.853 0 0 0 13.057-1.716 32 32 0 0 0 19.58-40.793z" fill="#d1d8db"/><path d="m373.934 201.801h64v32h-64z" fill="#ffc866" transform="matrix(.943 -.332 .332 .943 -49.252 146.909)"/><path d="m441.429 222.287-48.243 16.953 1.067-.777a32.986 32.986 0 0 0 11.681-37.621l24.885-8.745z" fill="#f9d59b"/><path d="m304 280h-240v-32h16v-64h-16v-32h240a64 64 0 0 1 64 64 64 64 0 0 1 -64 64z" fill="#a5662d"/><path d="m304 152h-240v16h224a64 64 0 0 1 64 64 63.688 63.688 0 0 1 -11.465 36.535 63.912 63.912 0 0 0 27.465-52.535 64 64 0 0 0 -64-64z" fill="#ba763e"/><path d="m80 184h224a32 32 0 0 1 32 32 32 32 0 0 1 -32 32h-224a0 0 0 0 1 0 0v-64a0 0 0 0 1 0 0z" fill="#fbf4ee"/><path d="m72 152h232v-32h-16v-32h16v-32h-232a48 48 0 0 0 -48 48 48 48 0 0 0 48 48z" fill="#6f8b7b"/><path d="m72 56a47.969 47.969 0 0 0 -40.988 23.012 47.772 47.772 0 0 1 24.988-7.012h216a16 16 0 0 1 16 16h16v-32z" fill="#88a594"/><path d="m288 120h16v32h-16z" fill="#88a594"/><path d="m56 88h216a16 16 0 0 1 16 16 16 16 0 0 1 -16 16h-216a0 0 0 0 1 0 0v-32a0 0 0 0 1 0 0z" fill="#fbf4ee" transform="matrix(-1 0 0 -1 344 208)"/><path d="m80 208h232v16h-232z" fill="#e4d9ce"/><path d="m416 488-40-40-40 40v-112h80z" fill="#e54a85"/><path d="m360 376h-24v112l40-40 40 40v-56a56 56 0 0 1 -56-56z" fill="#d32668"/><path d="m224 336h200v16h-200z"/><path d="m56 157.659v26.341a8 8 0 0 0 8 8h8v48h-8a8 8 0 0 0 -8 8v32a8 8 0 0 0 8 8h16v24a8 8 0 0 0 8 8h8v80h-8a8 8 0 0 0 -8 8v32a8 8 0 0 0 8 8h240v40a8 8 0 0 0 13.657 5.657l34.343-34.343 34.343 34.343a8 8 0 0 0 13.657-5.657v-40h31.2a40.846 40.846 0 0 0 40.8-40.8v-94.4a40.846 40.846 0 0 0 -40.8-40.8h-6.65a40.427 40.427 0 0 0 4.056-6.7 39.739 39.739 0 0 0 1.675-30.569l-5.305-15.1-10.61-30.19-42.439-120.756a7.961 7.961 0 0 0 -2.2-3.3l-52.363-47.321a8 8 0 0 0 -13.31 5.009l-8 68.556h.009a7.968 7.968 0 0 0 .39 3.578l20.805 59.2a71.487 71.487 0 0 0 -29.258-9.952v-24.455a8 8 0 0 0 -8-8h-8v-16h8a8 8 0 0 0 8-8v-32a8 8 0 0 0 -8-8h-232a56 56 0 0 0 -16 109.659zm56 226.341h216v16h-216zm-16 48v-16h232v16zm312 36.686-26.343-26.343a8 8 0 0 0 -11.314 0l-26.343 26.343v-84.686h64zm-72-100.686h-224v-16h96v-16h-96v-16h324.479a11.534 11.534 0 0 1 11.521 11.521v56.958a11.534 11.534 0 0 1 -11.521 11.521h-12.479v-24a8 8 0 0 0 -8-8zm144-55.2v94.4a24.828 24.828 0 0 1 -24.8 24.8h-31.2v-16h12.479a27.552 27.552 0 0 0 27.521-27.521v-56.958a27.552 27.552 0 0 0 -27.521-27.521h-340.479v-16h359.2a24.828 24.828 0 0 1 24.8 24.8zm-54.076-110.5 5.305 15.1-45.285 15.914-5.305-15.095zm-54.316 38.475 1.893 5.387 5.305 15.1a40.1 40.1 0 0 0 5.73 10.738h-35.351a72.3 72.3 0 0 0 22.423-31.229zm44.666 31.225a24.042 24.042 0 0 1 -22.374-16.051l-2.652-7.548 45.285-15.915 2.652 7.548a24.022 24.022 0 0 1 -22.598 31.966zm4.345-84.8-15.1 5.305-37.129-105.663 15.1-5.3zm-78.472-146.861 30.886 27.912-35.6 12.512zm11.153 51.807 37.134 105.665-15.095 5.305-1.251-3.558a71.437 71.437 0 0 0 -5.139-14.625l-30.749-87.482zm-281.3-28.146h224v16h-224a24 24 0 0 0 0 48h224v16h-160v16h168a56.058 56.058 0 0 1 50.18 31.178l4.524 12.873a55.974 55.974 0 0 1 -54.704 67.949h-232v-16h176v-16h-160v-16h224v-16h-224v-16h216a24 24 0 0 1 0 48h-40v16h40a40 40 0 0 0 0-80h-232v-16h48v-16h-48a40 40 0 0 1 0-80zm208 48h-208a8 8 0 0 1 0-16h208z"/></svg>