<svg id="Capa_1" enable-background="new 0 0 512 512" height="512" viewBox="0 0 512 512" width="512" xmlns="http://www.w3.org/2000/svg" xmlns:xlink="http://www.w3.org/1999/xlink"><linearGradient id="SVGID_1_" gradientUnits="userSpaceOnUse" x1="74.981" x2="437.02" y1="437.019" y2="74.98"><stop offset="0" stop-color="#8d00db"/><stop offset="1" stop-color="#fc54ff"/></linearGradient><radialGradient id="SVGID_2_" cx="256.001" cy="256" gradientUnits="userSpaceOnUse" r="256"><stop offset="0" stop-color="#8d00db" stop-opacity=".8"/><stop offset="1" stop-color="#fc54ff" stop-opacity="0"/></radialGradient><linearGradient id="lg1"><stop offset="0" stop-color="#fc54ff"/><stop offset=".1022" stop-color="#fd77ff"/><stop offset=".2431" stop-color="#fda0ff"/><stop offset=".3875" stop-color="#fec3ff"/><stop offset=".5338" stop-color="#feddff"/><stop offset=".6827" stop-color="#fff0ff"/><stop offset=".8359" stop-color="#fffbff"/><stop offset="1" stop-color="#fff"/></linearGradient><linearGradient id="SVGID_3_" gradientUnits="userSpaceOnUse" x1="-40.397" x2="703.482" xlink:href="#lg1" y1="594.472" y2="-149.407"/><linearGradient id="SVGID_4_" gradientUnits="userSpaceOnUse" x1="85.085" x2="1215.825" y1="375.01" y2="-755.73"><stop offset="0" stop-color="#fc54ff"/><stop offset=".5282" stop-color="#feadff"/><stop offset="1" stop-color="#fff"/></linearGradient><linearGradient id="lg2"><stop offset="0" stop-color="#8d00db" stop-opacity=".8"/><stop offset=".2542" stop-color="#b11be7" stop-opacity=".597"/><stop offset=".5825" stop-color="#da3af4" stop-opacity=".334"/><stop offset=".8426" stop-color="#f34dfc" stop-opacity=".126"/><stop offset="1" stop-color="#fc54ff" stop-opacity="0"/></linearGradient><linearGradient id="SVGID_5_" gradientUnits="userSpaceOnUse" x1="256" x2="256" xlink:href="#lg2" y1="404.746" y2="-6.598"/><linearGradient id="SVGID_6_" gradientUnits="userSpaceOnUse" x1="40.398" x2="539.989" xlink:href="#lg1" y1="610.598" y2="111.007"/><linearGradient id="SVGID_7_" gradientUnits="userSpaceOnUse" x1="29.683" x2="604.866" xlink:href="#lg1" y1="442.458" y2="-132.724"/><linearGradient id="SVGID_8_" gradientUnits="userSpaceOnUse" x1="221.27" x2="380.493" xlink:href="#lg2" y1="250.872" y2="91.649"/><linearGradient id="SVGID_9_" gradientUnits="userSpaceOnUse" x1="-381.592" x2="318.73" xlink:href="#lg1" y1="853.564" y2="153.242"/><linearGradient id="SVGID_10_" gradientUnits="userSpaceOnUse" x1="-1222.379" x2="294.729" xlink:href="#lg1" y1="1640.743" y2="123.635"/><linearGradient id="SVGID_11_" gradientUnits="userSpaceOnUse" x1="256" x2="256" y1="754.206" y2="150.031"><stop offset="0" stop-color="#8d00db" stop-opacity=".8"/><stop offset=".0914" stop-color="#9c0be0" stop-opacity=".727"/><stop offset=".3719" stop-color="#c52bed" stop-opacity=".502"/><stop offset=".6266" stop-color="#e341f7" stop-opacity=".299"/><stop offset=".8445" stop-color="#f64ffd" stop-opacity=".124"/><stop offset="1" stop-color="#fc54ff" stop-opacity="0"/></linearGradient><linearGradient id="SVGID_12_" gradientUnits="userSpaceOnUse" x1="242.335" x2="551.196" y1="229.807" y2="-79.055"><stop offset="0" stop-color="#fc54ff" stop-opacity="0"/><stop offset=".1555" stop-color="#f64ffd" stop-opacity=".124"/><stop offset=".3734" stop-color="#e341f7" stop-opacity=".299"/><stop offset=".6281" stop-color="#c52bed" stop-opacity=".502"/><stop offset=".9086" stop-color="#9c0be0" stop-opacity=".727"/><stop offset="1" stop-color="#8d00db" stop-opacity=".8"/></linearGradient><g><circle cx="256" cy="256" fill="url(#SVGID_1_)" r="256"/><circle cx="256" cy="256" fill="url(#SVGID_2_)" r="256"/><path d="m87.144 204.019c-.818 63.75.227 127.5 3.137 191.25 110.479 4.976 220.959 4.976 331.438 0 2.909-63.75 3.955-127.5 3.137-191.25-112.571-1.399-225.141-1.399-337.712 0z" fill="url(#SVGID_3_)"/><path d="m409.299 188.772c-102.199-1.57-204.398-1.57-306.598 0-8.463.137-15.449 6.97-15.557 15.247-.066 5.121 2.522 9.609 6.511 12.288-.028-.035 23.978 16.181 23.992 16.213 92.235-.298 184.47-.297 276.705.002.018-.032 24.02-16.249 24.004-16.215 3.978-2.679 6.565-7.167 6.499-12.288-.107-8.277-7.093-15.11-15.556-15.247z" fill="url(#SVGID_4_)"/><path d="m409.299 188.772c-102.199-1.57-204.398-1.57-306.598 0-8.463.137-15.449 6.97-15.557 15.247-.066 5.121 2.522 9.609 6.511 12.288-.028-.035 23.978 16.181 23.992 16.213 92.235-.298 184.47-.297 276.705.002 8.017-5.442 16.021-10.849 24.004-16.215 3.978-2.679 6.565-7.167 6.499-12.288-.107-8.277-7.093-15.11-15.556-15.247z" fill="url(#SVGID_5_)"/><path d="m415.72 383.187c1.158 1.485-145.91-99.312-146.633-100.19-3.722-2.568-8.228-4.076-13.088-4.076s-9.366 1.508-13.08 4.076c-.73.878-147.799 101.675-146.652 100.189-3.828 2.557-6.222 6.96-5.987 12.082.384 8.277 7.443 15.332 15.719 15.713 100 4.525 200 4.525 300 0 8.277-.381 15.335-7.436 15.719-15.713.236-5.121-2.158-9.524-5.998-12.081z" fill="url(#SVGID_6_)"/><path d="m376 79.797c-37.833-1.37-75.667-2.092-113.5-2.166 42.918 43.987 87.478 88.738 131.715 132.305-.338-38.146-1.214-76.292-2.627-114.438-.316-8.346-7.311-15.395-15.588-15.701z" fill="url(#SVGID_7_)"/><path d="m376 79.797c-37.833-1.37-75.667-2.092-113.5-2.166 42.918 43.987 87.478 88.738 131.715 132.305-.338-38.146-1.214-76.292-2.627-114.438-.316-8.346-7.311-15.395-15.588-15.701z" fill="url(#SVGID_8_)"/><path d="m283.785 86.741c-1.652 35.587-3.455 71.186-5.351 106.793 35.538-1.9 71.057-3.622 106.554-5.107-33.992-33.607-68.022-67.795-101.203-101.686z" fill="url(#SVGID_9_)"/><path d="m384.989 188.428c-5.622-5.556-13.328-9.069-21.785-9.174-18.208-.226-36.415-.395-54.623-.506-8.461-.051-15.347-6.953-15.389-15.436-.097-18.257-.227-36.515-.389-54.772-.076-8.48-3.532-16.193-9.018-21.798-5.488-5.604-13.003-9.094-21.285-9.11-42.167-.083-84.333.639-126.5 2.166-8.276.305-15.273 7.355-15.588 15.701-1.691 45.674-2.613 91.348-2.764 137.022 48.701 32.977 125.442 86.525 125.309 86.411 3.715 2.577 8.203 4.092 13.043 4.092s9.327-1.515 13.035-4.092c-.13.114 76.611-53.431 125.318-86.409-.025-7.529-.071-15.057-.138-22.586-.074-8.351-3.606-15.95-9.226-21.509z" fill="url(#SVGID_10_)"/><path d="m117.647 232.521c48.701 32.978 125.442 86.525 125.309 86.411 3.715 2.578 8.203 4.092 13.043 4.092s9.327-1.515 13.035-4.092c-.13.114 76.611-53.43 125.318-86.409-.01-3.083-.024-6.166-.041-9.25-48.604 25.051-125.3 65.949-125.237 65.873-3.716 1.97-8.218 3.127-13.074 3.127-4.856.001-9.358-1.158-13.082-3.127.065.076-76.631-40.824-125.229-65.875-.018 3.084-.031 6.167-.042 9.25z" fill="url(#SVGID_11_)"/><path d="m384.989 188.428c-5.622-5.556-13.328-9.069-21.785-9.174-18.208-.226-36.415-.395-54.623-.506-8.461-.051-15.347-6.953-15.389-15.436-.097-18.257-.227-36.515-.389-54.772-.076-8.48-3.533-16.193-9.018-21.798-5.489-5.604-13.003-9.094-21.285-9.11 7.979.016 14.226 7.197 13.346 15.318-2.829 25.917-5.755 51.845-8.731 77.78-2.276 19.711 14.409 36.412 34.096 34.172 25.894-2.941 51.771-5.792 77.624-8.507 8.1-.846 15.305 5.494 15.379 13.542-.073-8.351-3.605-15.95-9.225-21.509z" fill="url(#SVGID_12_)"/></g></svg>