<svg id="Capa_1" enable-background="new 0 0 512 512" height="512" viewBox="0 0 512 512" width="512" xmlns="http://www.w3.org/2000/svg"><g><path d="m107.509 468.139-21.218-21.219 10.612-10.612-21.211-21.211-10.612 10.612-21.219-21.218 21.211-21.211-21.211-21.211-42.422 42.422 106.07 106.07 42.422-42.422-21.211-21.211z"/><path d="m192.367 266.62c-14.15-14.165-38.833-14.194-53.042-.015-14.798 14.798-14.512 38.545 0 53.027l79.556 79.556 21.211-21.211-42.429-42.429 10.605-10.605 42.429 42.429 21.211-21.211zm-15.915 47.717-15.93-15.93c-2.878-2.878-2.945-7.631.015-10.591 3.838-3.838 6.768-3.838 10.605 0l15.916 15.916z"/><path d="m346.161 271.908-106.099-106.098-20.683 20.786 14.897 37.075-37.104-14.898-20.713 20.713 106.055 106.055 21.211-21.211-50.86-50.859 35.464 14.253-14.253-35.479 50.874 50.874z"/><path d="m108.534 304.706-26.572 13.916 13.856 26.453-26.454-13.855-13.916 26.572 64.812 33.948 33.948 64.812 26.572-13.916-13.855-26.454 26.453 13.856 13.916-26.572-64.812-33.948z"/><path d="m457.519 160.536-21.211-21.211-15.909 15.908-84.843-84.843-21.211 21.211 106.054 106.054z"/><path d="m356.767 261.303 21.211-21.211-42.435-42.424.013-.013c17.534-17.534 17.534-46.069 0-63.633-17.563-17.563-46.113-17.534-63.647 0l-21.211 21.211zm-63.648-106.07c5.845-5.845 15.366-5.874 21.211 0 5.859 5.845 5.859 15.366.015 21.211l-.015.015z"/><path d="m332 332v180h180v-180zm75 141.211-51.211-51.211 21.211-21.211 30 30 75-75 21.211 21.211z"/><path d="m0 0h180v180h-180z"/><path d="m468.139 149.931 42.422-42.422-21.211-21.211-21.211 21.211-21.219-21.218 10.599-10.599-21.211-21.211-10.599 10.599-21.218-21.219 21.211-21.211-21.211-21.211-42.422 42.422z"/></g></svg>