<svg id="Filled" height="512" viewBox="0 0 512 512" width="512" xmlns="http://www.w3.org/2000/svg"><path d="m112 281.6s72 20.8 144 20.8 144-20.8 144-20.8v-41.6h-288z" fill="#414649"/><path d="m112 240-88-74.667 232-53.333 232 53.333-88 74.667z" fill="#414649"/><path d="m400 280s-72-20.8-144-20.8-144 20.8-144 20.8v-83.2s72-20.8 144-20.8 144 20.8 144 20.8z" fill="#2d85cc"/><path d="m256 259.2c-72 0-144 20.8-144 20.8v-41.6s72-20.8 144-20.8 144 20.8 144 20.8v41.6s-72-20.8-144-20.8z" fill="#4f5659"/><circle cx="48" cy="328" fill="#2d85cc" r="24"/><path d="m464 408h-64v-176-128h64v128z" fill="#e9eef2"/><ellipse cx="432" cy="104" fill="#dadcde" rx="32" ry="24"/><ellipse cx="432" cy="408" fill="#dadcde" rx="32" ry="24"/><path d="m400 232h64v32h-64z" fill="#ffb632"/><path d="m16 328a32.056 32.056 0 0 0 24 30.987v25.013a8 8 0 0 0 16 0v-25.013a32 32 0 0 0 0-61.974v-94.036l48 40.723v37.9a8 8 0 0 0 5.779 7.686c2.985.862 73.921 21.114 146.221 21.114 57.153 0 113.444-12.653 136-18.382v115.982c0 17.645 17.944 32 40 32s40-14.355 40-32v-218.6l21.176-17.967a8 8 0 0 0 -3.384-13.9l-17.792-4.086v-49.447c0-17.645-17.944-32-40-32s-40 14.355-40 32v31.056l-134.208-30.856a8.03 8.03 0 0 0 -3.584 0l-232 53.334a8 8 0 0 0 -3.384 13.9l21.176 17.966v107.613a32.056 32.056 0 0 0 -24 30.987zm104-83.474c18.353-4.783 77.563-18.926 136-18.926s117.647 14.143 136 18.926v25.056c-22.561-5.73-78.853-18.382-136-18.382s-113.439 12.652-136 18.382zm288 27.474h48v110.417a48.089 48.089 0 0 0 -48 0zm48-16h-48v-16h48zm0-32h-48v-94.417a48.089 48.089 0 0 0 48 0zm-64 3.982c-22.556-5.729-78.847-18.382-136-18.382s-113.444 12.653-136 18.382v-25.056c18.365-4.787 77.575-18.926 136-18.926s117.635 14.139 136 18.926zm-249.625 52.818c27.257-5.95 70.649-13.6 113.625-13.6s86.368 7.65 113.625 13.6c-27.257 5.951-70.653 13.6-113.625 13.6s-86.368-7.649-113.625-13.6zm289.625 143.2c-13.01 0-24-7.327-24-16s10.99-16 24-16 24 7.327 24 16-10.99 16-24 16zm0-336c13.01 0 24 7.327 24 16s-10.99 16-24 16-24-7.327-24-16 10.99-16 24-16zm-176 32.208 136 31.265v34.909c-22.556-5.729-78.847-18.382-136-18.382-72.3 0-143.236 20.252-146.221 21.114a8 8 0 0 0 -5.779 7.686v25.92l-62.658-53.164zm-192 207.792a16 16 0 1 1 -16-16 16.019 16.019 0 0 1 16 16z"/></svg>